# xmcd CD database file
#
# Track frame offsets:
#	150
#	40699
#	53729
#	79020
#	109071
#
# Disc length: 1683 seconds
#
# Revision: 1
# Processed by: cddbd v1.5.2PL0 Copyright (c) Steve Scherf et al.
# Submitted via: jetAudio 5
#
DISCID=32069105
DTITLE=Various Artist - Custom Music CD
DYEAR=1900
DGENRE=
TTITLE0=03-bridge of sighs
TTITLE1=03-Lady love
TTITLE2=05-Somebody calling
TTITLE3=09-Messin' the blues
TTITLE4=12-Day of the eagle
EXTD=
EXTT0=
EXTT1=
EXTT2=
EXTT3=
EXTT4=
PLAYORDER=
